<?xml version="1.0" encoding="iso-8859-1"?>
<!-- Generator: Adobe Illustrator 18.1.1, SVG Export Plug-In . SVG Version: 6.00 Build 0)  -->
<svg version="1.1" id="Capa_1" xmlns="http://www.w3.org/2000/svg" xmlns:xlink="http://www.w3.org/1999/xlink" x="0px" y="0px"
	 viewBox="0 0 578.952 578.952" style="enable-background:new 0 0 578.952 578.952;" xml:space="preserve">
<g>
	<g>
		<path style="fill:#010002;" d="M403.307,340.271c9.793,0,17.545,2.857,23.256,8.568c3.264,3.264,5.508,6.834,6.732,10.711
			c1.225,3.875,2.244,7.242,3.061,10.098h-70.381c0.408-2.449,1.428-5.305,3.061-8.566c1.635-3.266,3.875-6.428,6.732-9.486
			c2.855-3.061,6.527-5.711,11.016-7.955C391.272,341.395,396.78,340.271,403.307,340.271z M222.156,377.604
			c0.408,0,1.836,0.205,4.284,0.613c2.448,0.408,4.998,1.527,7.65,3.365c2.652,1.836,4.998,4.689,7.038,8.566
			c2.04,3.875,3.06,9.486,3.06,16.83c0,11.832-2.856,19.379-8.568,22.646c-5.712,3.264-11.424,4.895-17.136,4.895h-63.036v-56.916
			L222.156,377.604L222.156,377.604z M235.62,307.225c0,5.711-0.51,10.301-1.53,13.77c-1.02,3.471-2.346,6.02-3.978,7.65
			c-1.632,1.631-3.468,2.652-5.508,3.061c-2.04,0.406-4.284,0.611-6.732,0.611h-62.424v-46.512h57.528h9.18l2.142,0.306
			c0,0,1.53,0.816,4.59,2.448c3.06,1.631,4.59,3.774,4.59,6.426S234.192,301.717,235.62,307.225z M492.659,407.592
			c0-0.408,0.205-3.467,0.613-9.182c0.408-5.713,0.203-12.75-0.613-21.111c-0.813-8.365-2.854-17.238-6.117-26.623
			c-3.266-9.383-8.568-18.156-15.912-26.316c-15.504-17.951-37.535-26.928-66.098-26.928c-12.646,0-23.766,1.531-33.354,4.59
			c-9.588,3.063-17.748,6.939-24.48,11.629c-6.73,4.691-12.342,9.996-16.83,15.912c-4.486,5.916-8.158,11.525-11.016,16.83
			c-2.855,6.119-5.1,12.035-6.732,17.748c-1.633,5.711-2.854,10.811-3.672,15.299c-0.814,4.488-1.324,8.16-1.527,11.02l-0.309,4.281
			v7.65c0,0,0.713,5.811,2.145,17.441c1.428,11.629,3.771,19.072,7.037,22.338c3.264,3.264,8.361,10.711,15.301,22.338
			c16.316,18.357,40.596,27.541,72.828,27.541h3.672c3.672,0,10.098-0.408,19.275-1.227c9.182-0.814,18.564-3.568,28.152-8.262
			c9.588-4.695,18.053-11.629,25.398-20.809c7.344-9.182,11.016-21.932,11.016-38.25c0-2.855-1.428-4.283-4.285-4.283h-42.227
			c-1.227,0-2.244,0.408-3.063,1.223c-0.814,1.633-1.225,2.652-1.225,3.063c0,0.406-0.203,1.836-0.611,4.283
			s-2.041,5.305-4.896,8.566c-6.119,6.121-16.115,9.18-29.988,9.18h-1.223c-1.635,0-4.488-0.305-8.568-0.918
			c-4.08-0.609-8.365-2.141-12.852-4.59c-9.793-5.711-14.895-15.299-15.303-28.764h121.789
			C491.436,411.264,492.659,410.041,492.659,407.592z M305.387,411.264v-5.814c0,0-0.408-4.385-1.227-13.154
			c-0.813-8.773-2.346-14.281-4.59-16.525s-5.607-7.344-10.097-15.299c-4.896-4.896-10.404-8.568-16.524-11.02
			c5.712-3.264,11.118-8.262,16.218-14.99c5.101-6.732,7.649-16.627,7.649-29.686c0-21.215-6.425-38.045-19.277-50.489
			s-30.702-18.666-53.55-18.666H97.919c-2.856,0-4.284,1.428-4.284,4.284v242.963c0,2.857,1.428,4.285,4.284,4.285h127.296
			c2.856,0,8.364-0.609,16.524-1.836c8.16-1.225,16.932-4.08,26.316-8.566c8.568-4.08,16.932-11.223,25.091-21.422
			C301.307,445.129,305.387,430.439,305.387,411.264z M348.227,275.4c0,2.448,1.225,3.672,3.672,3.672h100.369
			c2.855,0,4.283-1.224,4.283-3.672v-29.988c0-2.856-1.428-4.284-4.283-4.284H351.899c-2.447,0-3.672,1.428-3.672,4.284V275.4z
			 M561.815,0c4.08,0,7.549,1.326,10.404,3.978c2.854,2.652,4.285,6.018,4.285,10.098v550.801c0,4.08-1.432,7.443-4.285,10.098
			c-2.855,2.652-6.324,3.977-10.404,3.977H17.136c-4.08,0-7.548-1.322-10.404-3.977s-4.284-6.018-4.284-10.098V14.076
			c0-4.08,1.428-7.446,4.284-10.098S13.056,0,17.136,0H561.815L561.815,0z"/>
	</g>
</g>
<g>
</g>
<g>
</g>
<g>
</g>
<g>
</g>
<g>
</g>
<g>
</g>
<g>
</g>
<g>
</g>
<g>
</g>
<g>
</g>
<g>
</g>
<g>
</g>
<g>
</g>
<g>
</g>
<g>
</g>
</svg>
